<?xml version='1.0' encoding='iso-8859-1'?>
<svg version="1.1" xmlns="http://www.w3.org/2000/svg" viewBox="0 0 463.003 463.003" xmlns:xlink="http://www.w3.org/1999/xlink" enable-background="new 0 0 463.003 463.003">
  <path d="m427.162,231.178c2.789-6.336 5.602-12.641 8.163-18.381 14.658-32.847 14.589-33.129 13.749-36.577-11.302-46.382-59.065-68.148-71.114-72.961-6.347-14.96-18.215-31.875-40.365-44.648-36.569-21.088-50.699-52.623-50.831-52.923-1.009-2.333-3.131-3.997-5.638-4.419-0.81-0.136-20.103-3.296-42.757,0.9-19.752,3.66-35.936,11.795-47.939,23.921-12.888-10.396-30.4-14.213-42.853-15.578-12.36-1.355-24.505-0.775-27.435,0.219-2.446,0.831-4.379,2.912-4.973,5.427-1.798,7.607-7.398,16.169-12.814,24.45-8.563,13.089-17.395,26.599-15.471,41.065-30.408,16.048-62.638,46.348-67.462,50.957-0.868,0.829-1.524,1.854-1.913,2.989-0.253,0.735-6.212,18.274-9.259,41.632-4.163,31.928-0.94,58.223 9.58,78.152 0.313,0.594 0.651,1.164 0.977,1.745-9.619,17.603-5.902,33.652-2.616,47.82 2.56,11.036 4.77,20.566 1.164,30.13-0.822,2.186-0.566,4.668 0.669,6.649 2.688,4.308 37.683,29.308 74.52,33.135 0.617,2.493 1.409,5.013 2.447,7.544 8.383,20.427 28.705,36.715 60.403,48.412 16.22,5.985 27.681,11.665 37.792,16.675 12.52,6.203 23.331,11.561 37.507,14.333 3.954,0.773 7.983,1.156 12.064,1.156 19.231,0 39.597-8.495 58.502-24.623 3.787-3.231 9.206-6.394 14.942-9.742 19.705-11.501 46.567-27.209 45.035-67.341 3.449-1.901 6.831-3.942 10.129-6.194 0.482,0.497 1.036,0.938 1.668,1.299 2.995,1.708 5.974,2.473 8.939,2.473 13.242,0 26.189-15.277 38.783-30.138 9.442-11.142 20.144-23.77 28.849-27.249 2.231-0.893 6.083-3.411 6.792-10.25 1.455-13.989-11.186-45.747-29.234-60.059zm6.887-53.156c-1.6,4.411-7.316,17.223-12.422,28.662-7.607,17.048-14.242,32.048-18.938,43.614-0.823-2.563-1.671-5.142-2.526-7.737-4.177-12.686-8.496-25.804-10.169-38.808-1.577-12.26-4.93-22.818-9.994-31.625 5.589-14.636 6.924-32.65 3.748-49.605 16.234,8.562 42.368,26.415 50.301,55.499zm-97.395,178.74c-15.204,7.148-32.437,15.25-49.942,30.619-22.58,19.823-51.168,13.02-69.792-2.231 5.028-3.65 9.76-8.068 14.124-13.223 17.586-2.211 35.613-8.518 52.602-18.707 30.895-18.526 54.455-47.706 64.641-80.056 13.14-41.734-0.854-87.459-22.971-116.601 7.865,0.19 19.539,1.941 29.618,9.364 11.048,8.137 17.839,21.507 20.184,39.74 1.854,14.424 6.401,28.232 10.799,41.586 6.815,20.699 13.254,40.25 6.936,56.203-13.085,33.036-32.111,41.98-56.199,53.306zm-238.721-42.757c-6.392-13.878-14.341-23.021-21.354-31.087-9.655-11.105-17.282-19.877-19.762-38.244-5.743-42.541 21.015-83.604 49.105-100.642 7.733-4.69 15.02-7.19 21.036-7.399-16.336,18.229-34.514,48.345-33.916,77.909 0.36,17.807 7.472,32.478 21.137,43.607 3.605,2.936 7.331,5.519 11.154,7.755-4.276,13.241-2.306,32.778 5.437,50.684 6.523,15.087 22.893,41.972 59.229,52.507 6.077,1.762 12.395,2.88 18.866,3.396-10.728,8.084-22.959,11.482-36.036,9.89-28.366-3.452-57.064-29.653-74.896-68.376zm39.521-240.346c12.075-9.142 37.039-21.709 68.552-3.168 22.813,13.423 44.93,18.518 62.7,22.611 24.465,5.635 37.465,9.27 42.473,24.18 3.338,9.942-3.218,16.481-6.278,18.886-15.477-11.181-32.054-14.51-46.736-9.174-7.56-6.965-16.559-12.534-26.796-16.44-30.624-11.687-65.788-6.346-91.108,13.456-9.326-3.951-21.05-3.01-33.627,2.695 0.603-18.352 15.178-41.205 30.82-53.046zm56.722,281.031c-30.431-8.824-44.162-31.389-49.639-44.054-6.524-15.089-7.6-29.593-5.44-38.365 3.312,1.155 6.676,2.069 10.082,2.735 7.886,19.593 28.123,35.353 51.551,39.767 4.567,0.861 9.129,1.285 13.659,1.285 23.833,0 46.752-11.742 64.423-33.44 20.452-25.113 39.39-59.615 5.219-104.507-2.031-14.532-7.095-27.543-14.769-38.45 13.759-1.671 26.42,7.605 33.292,13.94 25.772,23.762 44.573,73.295 31.425,115.057-9.1,28.899-30.257,55.032-58.048,71.697-27.174,16.297-56.973,21.519-81.755,14.335zm-48.076-216.053c21.065-18.62 53.184-24.272 79.922-14.069 10.696,4.082 27.172,13.338 36.658,33.281-11.936-8.005-25.73-13.001-40.097-14.269-18.932-1.667-36.747,3.588-48.891,14.427-22.046,19.677-30.125,43.861-22.166,66.35 5.637,15.93 18.964,28.66 33.589,33.025-15.122,5.476-38.157,8.118-61.464-10.861-10.093-8.219-15.346-19.08-15.612-32.279-0.404-19.986 12.798-53.274 38.061-75.605zm53.198,107.028c-4.466-3.636-7.247-8.794-7.833-14.522s1.094-11.343 4.73-15.808 8.794-7.247 14.522-7.833c0.747-0.077 1.492-0.114 2.234-0.114 4.939,0 9.69,1.683 13.573,4.845 9.218,7.507 10.609,21.113 3.103,30.331-3.637,4.465-8.794,7.247-14.522,7.833-5.725,0.586-11.343-1.096-15.807-4.732zm13.546,19.847c1.256,0 2.521-0.064 3.788-0.194 9.715-0.994 18.461-5.711 24.627-13.283 12.729-15.631 10.369-38.704-5.261-51.434-7.572-6.166-17.094-9.017-26.807-8.021-9.715,0.994-18.461,5.711-24.627,13.283-6.167,7.572-9.016,17.092-8.022,26.807 0.115,1.126 0.286,2.238 0.5,3.336-4.971-4.354-9.08-10.168-11.375-16.654-5.91-16.7 0.487-34.512 18.014-50.156 9.066-8.092 22.761-11.982 37.583-10.675 19.341,1.708 37.458,11.625 49.704,27.21 27.472,34.958 18.354,60.228-3.786,87.415-23.887,29.331-50.143,29.436-63.673,26.887-15.614-2.942-29.344-12.02-36.866-23.758 2.339-0.111 4.688-0.322 7.045-0.656 7.484-1.058 18.936-3.833 31.162-10.998 2.605,0.587 5.282,0.891 7.994,0.891zm27.847-248.516c14.656-2.776 28.017-2.017 34.247-1.391 5.28,10.018 21.706,36.707 55.164,56 24.742,14.268 34.262,34.504 37.891,48.968 3.45,13.754 2.859,26.952 0.616,37.224-1.52-1.395-3.108-2.717-4.78-3.948-15.693-11.559-33.839-12.633-43.435-12.217 5.279-6.871 9.099-16.931 5.003-29.125-7.913-23.561-28.957-28.408-53.324-34.021-17.642-4.064-37.638-8.67-58.46-20.922-7.5-4.413-14.703-7.387-21.559-9.25 9.853-16.538 26.168-27.063 48.637-31.318zm-125.782,31.824c5.075-7.759 10.293-15.736 13.299-24.025 10.478-0.479 37.206,0.402 52.783,12.95-1.696,2.576-3.257,5.271-4.67,8.09-21.327-0.9-38.058,8.402-47.919,15.865-3.987,3.018-7.738,6.408-11.207,10.066-4.755,0.178-9.935,1.347-15.349,3.246 1.128-7.923 6.952-16.85 13.063-26.192zm-83.759,93.374c4.207-3.914 17.644-16.169 33.594-28.177 17.129-12.896 29.564-19.855 38.438-23.511-8.693,14.943-13.019,31.265-10.99,44.624-30.506,21.677-56.505,65.154-50.241,111.552 1.141,8.454 3.273,15.396 6.009,21.372-7-5.061-12.587-11.563-16.846-19.62-19.834-37.524-3.281-95.576 0.036-106.24zm-.344,159.387c-2.495-10.759-4.711-20.33-1.745-30.306 9.241,9.898 21.216,16.94 35.791,21.016 0.136,0.156 0.272,0.313 0.407,0.469 6.664,7.665 13.556,15.59 19.049,27.52 3.353,7.281 7.099,14.204 11.164,20.712-0.101,0.177-0.2,0.355-0.288,0.542-2.196,4.682-3.879,10.954-4.187,18.052-25.521-3.582-49.19-18.193-57.974-24.5 2.819-11.788 0.264-22.805-2.217-33.505zm277.838,114.103c-6.331,3.695-12.312,7.186-17.116,11.285-19.366,16.52-39.945,23.681-57.953,20.158-12.199-2.385-21.699-7.092-33.726-13.052-10.447-5.177-22.289-11.045-39.259-17.307-27.208-10.04-45.092-23.883-51.719-40.034-3.277-7.986-3.341-15.119-2.547-20.339 5.078,6.371 10.502,12.14 16.197,17.197 15.178,13.478 31.946,21.666 48.494,23.681 2.677,0.326 5.334,0.487 7.965,0.487 8.364,0 16.469-1.636 24.12-4.815 0.093,0.097 0.181,0.197 0.28,0.29 11.755,10.984 27.18,18.542 42.319,20.734 3.211,0.465 6.383,0.696 9.515,0.696 15.198,0 29.36-5.446 41.394-16.011 15.911-13.969 31.425-21.263 46.428-28.317 1.048-0.493 2.093-0.985 3.136-1.478-1.81,25.974-19.94,36.559-37.528,46.825zm100.671-96.645c-6.738,7.952-15.973,18.852-22.653,23.014 7.621-8.187 14.452-18.725 20.134-33.074 4.281-10.807 4.431-21.893 2.526-33.29 0.528-0.768 0.934-1.636 1.15-2.602 1.088-4.87 5.289-15.429 10.429-27.486 12.612,12.302 20.721,35.652 20.673,43.064-11.256,5.591-21.922,18.176-32.259,30.374z"/>
</svg>
